<svg width="13" height="14" viewBox="0 0 13 14" fill="none" xmlns="http://www.w3.org/2000/svg">
<path d="M12.6667 2.83203V4.16536H10.6667V6.16536H9.33333V4.16536H7.33333V2.83203H9.33333V0.832031H10.6667V2.83203H12.6667ZM10.6667 12.1654H1.33333V2.83203H5.33333V1.4987H1.33333C0.6 1.4987 0 2.0987 0 2.83203V12.1654C0 12.8987 0.6 13.4987 1.33333 13.4987H10.6667C11.4 13.4987 12 12.8987 12 12.1654V8.16536H10.6667V12.1654ZM8 8.16536V10.832H9.33333V8.16536H8ZM5.33333 10.832H6.66667V5.4987H5.33333V10.832ZM4 10.832V6.83203H2.66667V10.832H4Z" fill="#669DD7"/>
</svg>
