<svg id="content-view" xmlns="http://www.w3.org/2000/svg" width="20" height="20" viewBox="0 0 20 20">
  <defs>
    <style>
      .cls-1 {
        fill: #fff;
      }
    </style>
  </defs>
  <circle id="Ellipse_140" data-name="Ellipse 140" class="cls-1" cx="1.541" cy="1.541" r="1.541" transform="translate(8.459 10.766)"/>
  <path id="Path_53" data-name="Path 53" class="cls-1" d="M24.123,23.722A6.64,6.64,0,0,0,18.147,19.5a6.64,6.64,0,0,0-5.976,4.222l-.171.4.171.4a6.64,6.64,0,0,0,5.976,4.222,6.64,6.64,0,0,0,5.976-4.222l.171-.4Zm-5.976,3.484a3.082,3.082,0,1,1,3.074-3.082,3.078,3.078,0,0,1-3.074,3.082Z" transform="translate(-8.147 -11.819)"/>
  <path id="Path_54" data-name="Path 54" class="cls-1" d="M22.962,4.5H6.038A1.538,1.538,0,0,0,4.5,6.038V22.962A1.538,1.538,0,0,0,6.038,24.5H22.962A1.538,1.538,0,0,0,24.5,22.962V6.038A1.538,1.538,0,0,0,22.962,4.5ZM6.038,6.038H22.962V9.115H6.038Zm0,16.923V10.654H22.962V22.962Z" transform="translate(-4.5 -4.5)"/>
</svg>
