<svg width="18" height="18" viewBox="0 0 18 19" fill="none" xmlns="http://www.w3.org/2000/svg">
<path d="M9 5.58594C6.79 5.58594 5 7.37594 5 9.58594C5 11.7959 6.79 13.5859 9 13.5859C11.21 13.5859 13 11.7959 13 9.58594C13 7.37594 11.21 5.58594 9 5.58594ZM2 12.5859H0V16.5859C0 17.6859 0.9 18.5859 2 18.5859H6V16.5859H2V12.5859ZM2 2.58594H6V0.585938H2C0.9 0.585938 0 1.48594 0 2.58594V6.58594H2V2.58594ZM16 0.585938H12V2.58594H16V6.58594H18V2.58594C18 1.48594 17.1 0.585938 16 0.585938ZM16 16.5859H12V18.5859H16C17.1 18.5859 18 17.6859 18 16.5859V12.5859H16V16.5859Z" fill="#7E7E7E"/>
</svg>
