<svg width="100" height="24" viewBox="0 0 100 24" fill="none" xmlns="http://www.w3.org/2000/svg">
<path fill-rule="evenodd" clip-rule="evenodd" d="M25.6625 15.5745H27.977C28.8801 15.5745 29.2235 15.8951 29.2235 16.6804C29.2235 17.4365 28.8799 17.7568 27.977 17.7568H25.6625V15.5745ZM22.0768 23.517H25.6627V20.2873H29.5035C32.0464 20.2873 32.962 18.7461 32.962 16.7535C32.962 14.4404 32.0205 13.1315 29.4776 13.1315H22.0768V23.517ZM34.1445 13.1315H43.7953V15.6619H37.7303V17.0584H43.3637V19.5898H37.7303V20.9861H43.7953V23.517H34.1445V13.1315ZM48.8821 15.5745H51.1964C52.0993 15.5745 52.4429 15.8951 52.4429 16.6804C52.4429 17.4365 52.0993 17.7568 51.1964 17.7568H48.8821V15.5745ZM45.2963 23.517H48.8821V20.2873H52.7222C55.2658 20.2873 56.1816 18.7461 56.1816 16.7535C56.1816 14.4404 55.2401 13.1315 52.6967 13.1315H45.2963V23.517ZM59.6524 19.1096C57.8979 18.8037 57.1736 17.6401 57.1736 16.1859C57.1736 13.4945 59.4752 12.7678 62.4246 12.7678C66.4678 12.7678 68.1339 13.9747 68.2612 16.1714H64.0902C64.0902 15.7495 63.874 15.4871 63.5439 15.3418C63.2259 15.1822 62.8193 15.1242 62.4246 15.1242C61.3566 15.1242 60.9881 15.4292 60.9881 15.866C60.9881 16.1564 61.1021 16.3462 61.4582 16.4041L65.7433 17.1311C67.5492 17.4365 68.6684 18.3966 68.6684 20.1562C68.6684 22.688 66.8626 23.8807 62.8314 23.8807C60.0722 23.8807 57.0584 23.4445 57.0459 20.3897H61.3692C61.3814 20.7384 61.4964 20.9711 61.751 21.1312C62.0173 21.2769 62.4118 21.3498 62.9711 21.3498C64.0899 21.3498 64.3956 21.0004 64.3956 20.5057C64.3956 20.2003 64.2299 19.8951 63.7477 19.8082L59.6524 19.1096ZM69.8377 13.1315H73.4234V23.517H69.8377V13.1315ZM86.7125 19.4733C86.4835 20.8406 86.076 21.9461 85.1858 22.7023C84.309 23.4587 82.9352 23.8807 80.7485 23.8807C78.5742 23.8807 74.5432 23.7057 74.5432 18.3245C74.5432 12.9423 78.5742 12.7677 80.7485 12.7677C82.9097 12.7677 86.2416 13.0874 86.7125 17.2044H82.6688C82.567 16.4618 82.134 15.3856 80.7485 15.3856C79.2855 15.3856 78.3574 16.2147 78.3574 18.3244C78.3574 20.4335 79.2605 21.262 80.5702 21.262C81.7021 21.262 82.3761 20.7239 82.6686 19.4731H86.7125V19.4733ZM91.4042 18.3247C91.4042 16.2148 92.3328 15.386 93.7953 15.386C95.2574 15.386 96.1861 16.215 96.1861 18.3247C96.1861 20.4339 95.2574 21.2624 93.7953 21.2624C92.3328 21.2622 91.4042 20.4337 91.4042 18.3247V18.3247ZM87.5891 18.3247C87.5891 23.7057 91.6201 23.8809 93.7952 23.8809C95.9697 23.8809 100.001 23.7059 100.001 18.3247C100.001 12.9424 95.9697 12.7678 93.7952 12.7678C91.6201 12.7678 87.5891 12.9423 87.5891 18.3247ZM16.6585 13.2345C16.89 8.25178 12.7137 2.64058 7.02001 1.947L7.02974 1.87891C12.6428 1.87891 16.9458 7.22526 16.9458 11.443C16.9404 12.3211 16.873 12.8651 16.7528 13.26L16.6585 13.2345ZM16.3184 13.8678C15.945 14.3373 15.4753 14.81 14.925 15.2587C13.9127 9.26847 9.63434 4.03042 6.60956 2.50154L6.54477 2.548C9.58674 5.11663 13.2149 10.1054 14.6259 15.4937C13.9062 16.0377 13.1288 16.4957 12.3086 16.8591C9.43806 13.4911 6.76189 6.99561 5.89948 2.8738L5.81177 2.90096C5.83122 6.90197 8.59215 13.6941 11.9591 17.0083C11.1869 17.3227 10.3841 17.5509 9.56451 17.689C6.33703 16.3735 4.0397 12.1602 4.0397 7.84414C4.0397 5.02656 4.87466 3.28358 5.0362 2.92687L4.96742 2.89882C4.77201 3.20298 3.54883 4.94507 3.54883 7.98693C3.54883 12.8656 5.88732 16.5946 8.992 17.7689C7.88177 17.8946 6.75925 17.8403 5.66534 17.6083L5.64224 17.6826C5.97435 17.8084 7.10113 18.295 8.82004 18.295C12.7079 18.295 15.3361 15.8097 16.3941 13.9205L16.3184 13.8678Z" fill="#EFEFEF"/>
<path fill-rule="evenodd" clip-rule="evenodd" d="M8.43641 0.119141C5.4891 0.119141 2.0332 2.30765 2.0332 4.30816C2.0332 5.08198 2.72122 5.73571 4.1452 5.73571C7.45085 5.73571 10.522 3.39905 10.522 1.58208C10.522 0.625969 9.62955 0.119141 8.43641 0.119141ZM9.61304 1.52561C9.61304 3.05717 6.75449 4.92936 4.36493 4.92936C3.30919 4.92936 2.73877 4.50188 2.73877 3.79651C2.73877 2.24296 5.6298 0.402579 7.8712 0.402579C9.33252 0.402579 9.61304 1.16765 9.61304 1.52561Z" fill="#EFEFEF"/>
<path fill-rule="evenodd" clip-rule="evenodd" d="M0.838445 5.23528C0.755591 5.38272 0.423828 6.05111 0.423828 6.73594C0.423828 8.00606 1.67115 9.18521 3.96536 9.18521C8.37885 9.18521 13.4779 5.84273 13.4779 2.74008C13.4779 1.34736 12.1966 0.590147 11.3069 0.433594L11.2902 0.487923C11.5669 0.577994 12.5806 1.06285 12.5806 2.30348C12.5806 4.77563 8.07852 8.14403 3.59399 8.14403C1.87716 8.14403 0.795542 7.27208 0.795542 6.00196C0.795542 5.60021 0.876832 5.33554 0.898371 5.25887L0.838445 5.23528Z" fill="#EFEFEF"/>
<path fill-rule="evenodd" clip-rule="evenodd" d="M15.3189 2.9707C15.44 3.06524 16.1669 3.68859 16.1669 4.86738C16.1669 8.88661 10.0461 12.8388 4.63494 12.8388C1.40798 12.8388 -0.0630674 11.1995 0.00206934 9.7439H0.0599108C0.186363 10.4998 1.23411 11.8525 4.05844 11.8525C9.47642 11.8525 15.5258 7.76305 15.5258 4.18005C15.5258 3.56546 15.3636 3.18248 15.2719 3.01216L15.3189 2.9707Z" fill="#EFEFEF"/>
<path fill-rule="evenodd" clip-rule="evenodd" d="M17.3511 6.72266C17.3764 6.80826 17.5083 7.19303 17.5083 7.79564C17.5083 12.2667 11.314 16.0943 5.92678 16.0943C3.15404 16.0943 1.7061 14.7086 1.40039 14.1458L1.44972 14.1083C2.21694 14.7986 3.72812 15.3232 5.49167 15.3232C10.2496 15.3232 17.3492 11.5988 17.2858 6.73892L17.3511 6.72266Z" fill="#EFEFEF"/>
</svg>