<svg width="20" height="21" viewBox="0 0 20 21" fill="none" xmlns="http://www.w3.org/2000/svg">
<path d="M7.07771 15.1131C6.84759 15.4584 6.38033 15.5602 6.05589 15.3003C5.3996 14.7745 4.85083 14.1298 4.44133 13.3996C3.91101 12.4539 3.63096 11.3946 3.62647 10.3172C3.62198 9.23988 3.89319 8.17838 4.41561 7.22857C4.81922 6.49476 5.36296 5.84547 6.01531 5.31433C6.3369 5.0525 6.80498 5.1513 7.0382 5.49511C7.27944 5.85073 7.17611 6.33085 6.85503 6.61528C6.42636 6.99504 6.0658 7.44437 5.7904 7.94508C5.39021 8.67266 5.18246 9.48579 5.1859 10.3111C5.18934 11.1364 5.40386 11.9479 5.8101 12.6722C6.08909 13.1697 6.45245 13.6154 6.8831 13.9912C7.20769 14.2745 7.3162 14.7553 7.07771 15.1131Z" fill="#D20000"/>
<path d="M12.5223 5.62675C12.7665 5.2908 13.2376 5.20748 13.551 5.47994C14.1849 6.03114 14.7065 6.69689 15.0854 7.44263C15.576 8.40836 15.8119 9.47783 15.7716 10.5545C15.7314 11.6312 15.4164 12.6811 14.8549 13.6096C14.4212 14.327 13.8509 14.9544 13.177 15.4594C12.8449 15.7084 12.3813 15.5912 12.1626 15.2386C11.9363 14.8737 12.0594 14.398 12.3921 14.1264C12.8361 13.7639 13.2151 13.3291 13.511 12.8396C13.9411 12.1284 14.1824 11.3241 14.2132 10.4993C14.244 9.67457 14.0634 8.85532 13.6875 8.11554C13.4294 7.60751 13.0849 7.14794 12.6702 6.75545C12.3576 6.4596 12.2691 5.97493 12.5223 5.62675Z" fill="#D20000"/>
<path d="M3.18356 17.0842C2.93363 17.493 2.36143 17.5463 2.07951 17.1589C1.51056 16.3771 1.04166 15.4717 0.693764 14.4787C0.229381 13.1531 -0.00760431 11.7052 0.000185996 10.2411C0.0079763 8.77691 0.260345 7.33365 0.738785 6.01714C1.09642 5.03303 1.5736 4.1384 2.14911 3.36866C2.43692 2.98372 3.01003 3.0451 3.25545 3.45836C3.4197 3.73494 3.37833 4.0846 3.17692 4.33541C2.62791 5.0191 2.1768 5.83395 1.84754 6.73998C1.44964 7.83487 1.23976 9.03516 1.23328 10.2528C1.2268 11.4705 1.42389 12.6747 1.8101 13.777C2.13035 14.6912 2.57391 15.5161 3.11713 16.2111C3.31412 16.4631 3.35043 16.8113 3.18356 17.0842Z" fill="#D20000"/>
<path d="M16.358 3.62264C16.5966 3.20746 17.1671 3.13908 17.4597 3.51894C18.0501 4.28554 18.5439 5.17833 18.9192 6.16184C19.4201 7.47468 19.6971 8.91585 19.7299 10.3797C19.7627 11.8435 19.5504 13.2929 19.1086 14.6215C18.7784 15.6146 18.3262 16.5214 17.7722 17.306C17.4952 17.6983 16.9205 17.652 16.6637 17.2454C16.4919 16.9732 16.5236 16.6226 16.7179 16.3666C17.2478 15.6687 17.6762 14.8423 17.9802 13.928C18.3476 12.8231 18.5242 11.6177 18.4969 10.4003C18.4697 9.18289 18.2393 7.98433 17.8227 6.8925C17.4772 5.98711 17.0109 5.17416 16.4487 4.49367C16.2448 4.24691 16.1988 3.89981 16.358 3.62264Z" fill="#D20000"/>
<circle cx="9.81445" cy="10.4531" r="1.5" fill="#D20000"/>
</svg>
