<svg width="26" height="20" viewBox="0 0 26 20" fill="none" xmlns="http://www.w3.org/2000/svg">
<path d="M19.4 4V3.9H19.3H18.4H18.3V4V7.6V7.65662L18.3486 7.68575L21.4986 9.57575L21.5837 9.62683L21.6354 9.54206L22.0854 8.80406L22.1381 8.71765L22.051 8.666L19.4 7.09306V4ZM18.994 0.9C15.6266 0.9 12.9 3.6329 12.9 7C12.9 10.3671 15.6266 13.1 18.994 13.1C22.3672 13.1 25.1 10.3673 25.1 7C25.1 3.63271 22.3672 0.9 18.994 0.9ZM19 11.7C16.4032 11.7 14.3 9.59677 14.3 7C14.3 4.40323 16.4032 2.3 19 2.3C21.5968 2.3 23.7 4.40323 23.7 7C23.7 9.59677 21.5968 11.7 19 11.7Z" fill="white" stroke="white" stroke-width="0.2"/>
<path fill-rule="evenodd" clip-rule="evenodd" d="M22 12.1973C21.1175 12.7078 20.0929 13 19 13C15.6863 13 13 10.3137 13 7C13 5.90714 13.2922 4.88252 13.8027 4H6V8H3L0 12V17H2C2 18.66 3.34 20 5 20C6.66 20 8 18.66 8 17H14C14 18.66 15.34 20 17 20C18.66 20 20 18.66 20 17H22V12.1973ZM18.5 17C18.5 17.83 17.83 18.5 17 18.5C16.17 18.5 15.5 17.83 15.5 17C15.5 16.17 16.17 15.5 17 15.5C17.83 15.5 18.5 16.17 18.5 17ZM1.54 12L3.5 9.5H6V12H1.54ZM6.5 17C6.5 17.83 5.83 18.5 5 18.5C4.17 18.5 3.5 17.83 3.5 17C3.5 16.17 4.17 15.5 5 15.5C5.83 15.5 6.5 16.17 6.5 17Z" fill="white"/>
</svg>
