<svg width="32" height="32" viewBox="0 0 32 32" fill="none" xmlns="http://www.w3.org/2000/svg">
<mask id="mask0_13678_23218" style="mask-type:alpha" maskUnits="userSpaceOnUse" x="0" y="0" width="32" height="32">
<rect width="32" height="32" fill="white"/>
</mask>
<g mask="url(#mask0_13678_23218)">
<path fill-rule="evenodd" clip-rule="evenodd" d="M25.6758 20.8234C25.9734 14.2625 20.6062 6.87402 13.2891 5.96075L13.3016 5.87109C20.5151 5.87109 26.0451 12.9109 26.0451 18.4646C26.0381 19.6207 25.9515 20.337 25.7971 20.8571L25.6758 20.8234ZM25.2388 21.6574C24.7588 22.2755 24.1552 22.898 23.4481 23.4888C22.1471 15.6012 16.6488 8.70408 12.7616 6.69094L12.6783 6.75212C16.5877 10.1343 21.2504 16.7032 23.0637 23.7983C22.1388 24.5145 21.1397 25.1177 20.0856 25.5961C16.3966 21.1613 12.9573 12.6085 11.849 7.18111L11.7363 7.21687C11.7613 12.4852 15.3095 21.4286 19.6365 25.7926C18.6441 26.2066 17.6124 26.5071 16.5591 26.6889C12.4113 24.9568 9.45896 19.4089 9.45896 13.7258C9.45896 10.0157 10.532 7.72069 10.7396 7.251L10.6512 7.21405C10.4001 7.61456 8.82812 9.90844 8.82812 13.9138C8.82812 20.3377 11.8334 25.2478 15.8233 26.7941C14.3965 26.9596 12.954 26.8882 11.5481 26.5826L11.5184 26.6805C11.9452 26.8461 13.3933 27.4869 15.6023 27.4869C20.5988 27.4869 23.9764 24.2143 25.3361 21.7268L25.2388 21.6574Z" fill="#EFEFEF"/>
<path fill-rule="evenodd" clip-rule="evenodd" d="M15.1099 3.55469C11.3222 3.55469 6.88086 6.43639 6.88086 9.07054C6.88086 10.0895 7.76506 10.9503 9.59506 10.9503C13.8433 10.9503 17.7901 7.87348 17.7901 5.481C17.7901 4.22205 16.6432 3.55469 15.1099 3.55469ZM16.622 5.40664C16.622 7.42331 12.9484 9.8885 9.87744 9.8885C8.52068 9.8885 7.7876 9.32562 7.7876 8.39682C7.7876 6.35121 11.503 3.9279 14.3835 3.9279C16.2615 3.9279 16.622 4.9353 16.622 5.40664Z" fill="#EFEFEF"/>
<path fill-rule="evenodd" clip-rule="evenodd" d="M5.34339 10.2913C5.23691 10.4855 4.81055 11.3656 4.81055 12.2673C4.81055 13.9397 6.41353 15.4924 9.36189 15.4924C15.0338 15.4924 21.5868 11.0912 21.5868 7.00579C21.5868 5.17194 19.9401 4.17489 18.7967 3.96875L18.7753 4.04029C19.1309 4.15889 20.4337 4.79731 20.4337 6.4309C20.4337 9.68608 14.6479 14.1214 8.88463 14.1214C6.67827 14.1214 5.28825 12.9733 5.28825 11.3008C5.28825 10.7718 5.39272 10.4233 5.4204 10.3224L5.34339 10.2913Z" fill="#EFEFEF"/>
<path fill-rule="evenodd" clip-rule="evenodd" d="M23.9545 7.30859C24.1101 7.43308 25.0443 8.25386 25.0443 9.80602C25.0443 15.0983 17.1782 20.3024 10.2241 20.3024C6.07702 20.3024 4.18653 18.1438 4.27024 16.2271H4.34457C4.50708 17.2225 5.85357 19.0036 9.48322 19.0036C16.4461 19.0036 24.2203 13.6189 24.2203 8.90099C24.2203 8.09173 24.0118 7.58745 23.894 7.36319L23.9545 7.30859Z" fill="#EFEFEF"/>
<path fill-rule="evenodd" clip-rule="evenodd" d="M26.5652 12.25C26.5978 12.3627 26.7672 12.8694 26.7672 13.6628C26.7672 19.55 18.8068 24.59 11.8834 24.59C8.32009 24.59 6.45928 22.7654 6.06641 22.0244L6.1298 21.975C7.11579 22.884 9.05785 23.5746 11.3243 23.5746C17.4388 23.5746 26.5627 18.6706 26.4813 12.2714L26.5652 12.25Z" fill="#EFEFEF"/>
</g>
</svg>
