<svg width="20" height="21" viewBox="0 0 20 21" fill="none" xmlns="http://www.w3.org/2000/svg">
<path d="M10 0.5C8.68678 0.5 7.38642 0.758658 6.17317 1.2612C4.95991 1.76375 3.85752 2.50035 2.92893 3.42893C1.05357 5.3043 0 7.84784 0 10.5C0 13.1522 1.05357 15.6957 2.92893 17.5711C3.85752 18.4997 4.95991 19.2362 6.17317 19.7388C7.38642 20.2413 8.68678 20.5 10 20.5C12.6522 20.5 15.1957 19.4464 17.0711 17.5711C18.9464 15.6957 20 13.1522 20 10.5C20 9.18678 19.7413 7.88642 19.2388 6.67317C18.7362 5.45991 17.9997 4.35752 17.0711 3.42893C16.1425 2.50035 15.0401 1.76375 13.8268 1.2612C12.6136 0.758658 11.3132 0.5 10 0.5ZM10 2.5C12.1217 2.5 14.1566 3.34285 15.6569 4.84315C17.1571 6.34344 18 8.37827 18 10.5C18 12.6217 17.1571 14.6566 15.6569 16.1569C14.1566 17.6571 12.1217 18.5 10 18.5C7.87827 18.5 5.84344 17.6571 4.34315 16.1569C2.84285 14.6566 2 12.6217 2 10.5C2 8.37827 2.84285 6.34344 4.34315 4.84315C5.84344 3.34285 7.87827 2.5 10 2.5ZM10 7.5C9.20435 7.5 8.44129 7.81607 7.87868 8.37868C7.31607 8.94129 7 9.70435 7 10.5C7 11.2956 7.31607 12.0587 7.87868 12.6213C8.44129 13.1839 9.20435 13.5 10 13.5C10.7956 13.5 11.5587 13.1839 12.1213 12.6213C12.6839 12.0587 13 11.2956 13 10.5C13 9.70435 12.6839 8.94129 12.1213 8.37868C11.5587 7.81607 10.7956 7.5 10 7.5Z" fill="#D20000"/>
</svg>
