<svg id="sort" xmlns="http://www.w3.org/2000/svg" width="15" height="20" viewBox="0 0 15 20">
  <defs>
    <style>
      .cls-1 {
        fill: #fff;
      }
    </style>
  </defs>
  <path id="Path_52" data-name="Path 52" class="cls-1" d="M15,12.727a.861.861,0,0,1-.278.639L8.159,19.73a.94.94,0,0,1-1.318,0L.278,13.366a.873.873,0,0,1,0-1.278.915.915,0,0,1,.659-.27H14.063a.915.915,0,0,1,.659.27A.861.861,0,0,1,15,12.727Zm0-5.455a.861.861,0,0,1-.278.639.915.915,0,0,1-.659.27H.938a.915.915,0,0,1-.659-.27.873.873,0,0,1,0-1.278L6.841.27a.94.94,0,0,1,1.318,0l6.563,6.364A.861.861,0,0,1,15,7.273Z"/>
</svg>
