<svg xmlns="http://www.w3.org/2000/svg" width="20" height="19.791" viewBox="0 0 20 19.791">
  <defs>
    <style>
      .cls-1 {
        fill: #fff;
      }
    </style>
  </defs>
  <g id="bx-message-check" transform="translate(-4 -4)">
    <path id="Path_74" data-name="Path 74" class="cls-1" d="M22,4H6A2,2,0,0,0,4,6V18.017a2,2,0,0,0,2,2H9v3.772l6.277-3.772H22a2,2,0,0,0,2-2V6A2,2,0,0,0,22,4Zm.888,14.823H14.723l-4.579,2.792v-2.8L5.2,18.823V5.179H22.888Z"/>
    <path id="Path_75" data-name="Path 75" class="cls-1" d="M24.512,13l-.859-.894L18.3,17.589l-2.873-2.849-.839.764L18.3,19.216Z" transform="translate(-5.299 -3.788)"/>
  </g>
</svg>
