<svg xmlns="http://www.w3.org/2000/svg" width="20" height="12.553" viewBox="0 0 20 12.553">
  <defs>
    <style>
      .cls-1 {
        fill: #fff;
      }
    </style>
  </defs>
  <g id="view" transform="translate(-1.501 -7.5)">
    <path id="Path_72" data-name="Path 72" class="cls-1" d="M21.461,13.583c-1.6-3.548-5.519-5.94-9.96-6.083-4.442.143-8.358,2.534-9.96,6.083a.494.494,0,0,0,0,.388c1.6,3.548,5.519,5.94,9.96,6.083,4.442-.143,8.358-2.534,9.96-6.083a.494.494,0,0,0,0-.388ZM11.5,18.912c-3.533,0-7.267-2.242-8.62-5.135,1.353-2.893,5.087-5.135,8.62-5.135s7.267,2.242,8.62,5.135C18.768,16.67,15.034,18.912,11.5,18.912Z"/>
    <path id="Path_73" data-name="Path 73" class="cls-1" d="M18.424,15a3.424,3.424,0,1,0,3.424,3.424A3.424,3.424,0,0,0,18.424,15Zm0,5.706a2.282,2.282,0,1,1,2.282-2.282A2.282,2.282,0,0,1,18.424,20.706Z" transform="translate(-6.923 -4.647)"/>
  </g>
</svg>
